<svg xmlns="http://www.w3.org/2000/svg" xmlns:xlink="http://www.w3.org/1999/xlink" width="889" height="580"><style><![CDATA[.B{fill-rule:nonzero}.C{fill:#fff}.D{fill:#eab09d}.E{stroke-linecap:round}.F{stroke-linejoin:round}.G{opacity:.3}.H{fill:#96c0f0}.I{fill:#206CFD}.J{fill:#ffb750}.K{stroke-width:2.405}.L{stroke-width:1.707}]]></style><defs><linearGradient x1="-4.28350558%" y1="77.6847777%" x2="41.8834695%" y2="77.6847777%" id="A"><stop stop-color="#206CFD" offset="0%"/><stop stop-color="#e3f0ff" offset="100%"/></linearGradient><linearGradient x1="70.2517403%" y1="77.6847777%" x2="100%" y2="77.6847777%" id="B"><stop stop-color="#e3f0ff" offset="0%"/><stop stop-color="#206CFD" offset="100%"/></linearGradient><path d="M39.917 27.16c1.447 0 2.717-.323 3.8-.97s1.64-1.72 1.64-3.223c0-1.207-.43-2.127-1.293-2.76-.5-.363-1.207-.65-2.124-.86h0l-1.902-.434c-1.28-.296-2.103-.542-2.466-.74-.554-.308-.83-.794-.83-1.46 0-.603.237-1.133.71-1.588s1.253-.683 2.336-.683c1.342 0 2.293.354 2.854 1.062.302.388.5.945.59 1.672h1.727c0-1.508-.497-2.606-1.49-3.292s-2.203-1.03-3.625-1.03c-1.545 0-2.74.39-3.583 1.173s-1.265 1.782-1.265 3c0 1.127.43 1.973 1.293 2.54.5.326 1.348.625 2.55.896h0l1.838.416c.997.228 1.73.496 2.198.803.462.314.693.84.693 1.58 0 .985-.548 1.668-1.644 2.05-.566.197-1.194.296-1.884.296-1.54 0-2.614-.45-3.223-1.348-.32-.48-.502-1.105-.545-1.875h0-1.727c-.018 1.465.45 2.626 1.404 3.482.954.862 2.275 1.293 3.962 1.293zm13.243-.037c2.3 0 3.848-.82 4.673-2.457.45-.9.674-2.183.674-3.85h0v-7.62h-1.866v8.386c0 .98-.15 1.758-.453 2.336-.56 1.065-1.62 1.598-3.177 1.598-1.3 0-2.223-.493-2.77-1.478-.37-.653-.554-1.47-.554-2.457h0v-8.386h-1.866v7.62c0 1.668.225 2.952.674 3.85.82 1.638 2.373 2.457 4.664 2.457zm13.88-.36c1.785 0 3.088-.53 3.906-1.588a3.78 3.78 0 0 0 .822-2.373c0-1.04-.305-1.856-.914-2.447-.345-.332-.865-.63-1.56-.896.474-.24.837-.505 1.1-.794.486-.548.73-1.25.73-2.106 0-.733-.197-1.38-.59-1.94-.67-.948-1.8-1.422-3.39-1.422h0-5.827v13.566h5.735zm-.59-7.83h-3.343V14.73h3.278c.8 0 1.404.086 1.8.26.72.308 1.08.905 1.08 1.792 0 .88-.34 1.5-1.016 1.83-.43.215-1.034.323-1.8.323h0zm.62 6.26h-3.962v-4.775h3.648c.77 0 1.388.095 1.856.286.88.357 1.32 1.028 1.32 2.013 0 .585-.15 1.084-.453 1.496-.48.653-1.284.98-2.4.98h0zm8.607 1.57v-8.135l-.046-2.89v-.416l3.897 11.442h1.82l3.87-11.442-.018 2.06-.018 1.376v8.007h1.745V13.196H84.32l-3.87 11.47-3.897-11.47H73.92v13.566h1.755zm16.32 0V13.196h-1.856v13.566h1.856zm8.284 0v-11.95h4.57v-1.616H93.84v1.616h4.57v11.95h1.866zm16.143 0v-11.95h4.57v-1.616h-11.008v1.616h4.57v11.95h1.866zm5.578 0l1.468-4.063h5.366l1.376 4.063h2.013L127.3 13.196h-2.078l-5.107 13.566H122zm6.243-5.56h-4.248l2.19-5.994 2.06 5.994zm10.49 5.957c1.447 0 2.717-.323 3.8-.97s1.64-1.72 1.64-3.223c0-1.207-.43-2.127-1.293-2.76-.5-.363-1.207-.65-2.124-.86h0l-1.902-.434c-1.28-.296-2.103-.542-2.466-.74-.554-.308-.83-.794-.83-1.46 0-.603.237-1.133.71-1.588s1.253-.683 2.336-.683c1.342 0 2.293.354 2.854 1.062.302.388.5.945.59 1.672h1.727c0-1.508-.497-2.606-1.49-3.292s-2.203-1.03-3.625-1.03c-1.545 0-2.74.39-3.583 1.173s-1.265 1.782-1.265 3c0 1.127.43 1.973 1.293 2.54.5.326 1.348.625 2.55.896h0l1.838.416c.997.228 1.73.496 2.198.803.462.314.693.84.693 1.58 0 .985-.548 1.668-1.644 2.05-.566.197-1.194.296-1.884.296-1.54 0-2.614-.45-3.223-1.348-.32-.48-.502-1.105-.545-1.875h0-1.727c-.018 1.465.45 2.626 1.404 3.482.954.862 2.275 1.293 3.962 1.293zm9.568-.397v-4.728l2.17-2.078 4.747 6.806h2.392l-5.8-8.1 5.643-5.467h-2.54l-6.612 6.612v-6.612h-1.792v13.566h1.792z" id="C"/><path id="D" d="M237.484 145.65a6.61 6.61 0 0 1-6.603 6.603 6.61 6.61 0 0 1-6.603-6.603 6.61 6.61 0 0 1 6.603-6.603 6.61 6.61 0 0 1 6.603 6.603z"/><path id="E" d="M760.504 200.752c0 5.692-4.554 10.246-10.246 10.246s-10.246-4.554-10.246-10.246 4.554-10.246 10.246-10.246 10.246 4.554 10.246 10.246z"/><path id="F" d="M87.204 249.25c-.683 0-1.366-.683-1.366-1.366v-9.336c0-.683.683-1.366 1.366-1.366s1.366.683 1.366 1.366v9.336c0 .683-.683 1.366-1.366 1.366z"/><path id="G" d="M156.424 336.23h-9.336c-.683 0-1.366-.683-1.366-1.366s.683-1.366 1.366-1.366h9.336c.683 0 1.366.683 1.366 1.366 0 .91-.683 1.366-1.366 1.366z"/></defs><g transform="translate(-1)" fill="none" fill-rule="evenodd"><path d="M173.957 253.577c2.05 5.92-1.366 12.296-7.286 14.345s-12.296-1.366-14.345-7.286 1.366-12.296 7.286-14.345 12.523 1.366 14.345 7.286z" class="B H"/><path stroke="#fff" d="M158.7 259.042l5.465 2.732 3.188-9.336" class="E F K"/><path d="M272.55 376.99c-2.05 5.92-8.425 9.108-14.345 7.06s-9.108-8.425-7.06-14.345 8.425-9.108 14.345-7.06 9.108 8.425 7.06 14.345z" class="B H"/><path stroke="#fff" d="M257.066 372.207l2.732 5.465 8.197-5.692" class="E F K"/><g class="B H"><path d="M697.204 73.924c3.87 8.88-.228 18.9-9.108 22.77s-18.9-.228-22.77-9.108.228-18.9 9.108-22.77c8.652-3.643 18.9.455 22.77 9.108zM183.52 182.764a4.099 4.099 0 1 1-8.197 0 4.08 4.08 0 0 1 4.099-4.099c2.277-.228 4.1 1.822 4.1 4.1zm584.726-73.09a4.099 4.099 0 1 1-8.197 0 4.099 4.099 0 1 1 8.197 0zM461.766 4.932a4.099 4.099 0 1 1-8.197 0 4.099 4.099 0 1 1 8.197 0z"/><use xlink:href="#D"/><use xlink:href="#D" x="580.172" y="124.322"/><use xlink:href="#D" x="-85.158"/><use xlink:href="#D" x="-119.996" y="296.916"/><use xlink:href="#D" x="-35.748" y="201.283" class="G"/><use xlink:href="#E" class="G"/><path d="M760.504 15.18c0 5.692-4.554 10.246-10.246 10.246S740.01 20.87 740.01 15.18s4.554-10.246 10.246-10.246 10.246 4.554 10.246 10.246z" class="G"/><use xlink:href="#E" x="-656.45" y="342.911" class="G"/><path d="M293.573 8.794a6.61 6.61 0 0 1-6.603 6.603 6.61 6.61 0 0 1-6.603-6.603 6.61 6.61 0 0 1 6.603-6.603c3.643-.228 6.603 2.96 6.603 6.603z" class="G"/><use xlink:href="#D" x="607.04" y="275.75" opacity=".2"/><use xlink:href="#F"/><path d="M91.758 244.697h-9.336c-.683 0-1.366-.683-1.366-1.366s.683-1.366 1.366-1.366h9.336c.683 0 1.366.683 1.366 1.366s-.455 1.366-1.366 1.366z"/></g><g fill="#6786f4" class="B"><path d="M151.87 341.012c-.683 0-1.366-.683-1.366-1.366v-9.336c0-.683.683-1.366 1.366-1.366s1.366.683 1.366 1.366v9.336c-.228.683-.683 1.366-1.366 1.366z"/><use xlink:href="#G"/></g><g fill="#9999ef" class="B"><use xlink:href="#F" x="710.186" y="135.025"/><use xlink:href="#G" x="645.748" y="43.264"/><use xlink:href="#F" x="587.914" y="-52.824"/><path d="M679.9 191.644h-9.336c-.683 0-1.366-.683-1.366-1.366s.683-1.366 1.366-1.366h9.336c.683 0 1.366.683 1.366 1.366-.228.91-.683 1.366-1.366 1.366z"/></g><g opacity=".5" class="B"><path d="M227.31 466.7v-72.408l-49.183 53.736v89.257h-31.65V409.32h-7.97L115.5 387.918 92.512 409.32h-7.97v172.594H61.9v94.04h242.133v-209.48H227.31v.228zm-88.802 45.995H92.74v-4.782h45.767v4.782zm0-9.336H92.74v-4.782h45.767v4.782zm0-9.563H92.74v-4.782h45.767v4.782zm0-9.336H92.74v-4.782h45.767v4.782zm0-9.336H92.74v-4.782h45.767v4.782zm0-9.336H92.74v-4.554h45.767v4.554zm0-9.336H92.74v-4.782h45.767v4.782zm0-9.336H92.74v-4.782h45.767v4.782zm0-9.336H92.74v-4.782h45.767v4.782zm0-9.336H92.74v-4.782h45.767v4.782zm0-9.336H92.74v-4.782h45.767v4.782zM221.16 646.81h-4.782V416.835l4.782-5.237v235.21z" class="H"/><path d="M739.203 466.7v-72.408L690.02 448.03v89.257h-31.65V409.32h-7.97l-22.997-21.404-22.997 21.404h-7.97v172.594h-116.58v94.04h336.08v-209.48h-76.734v.228zm-89.03 45.995h-45.767v-4.782h45.767v4.782zm0-9.336h-45.767v-4.782h45.767v4.782zm0-9.563h-45.767v-4.782h45.767v4.782zm0-9.336h-45.767v-4.782h45.767v4.782zm0-9.336h-45.767v-4.782h45.767v4.782zm0-9.336h-45.767v-4.554h45.767v4.554zm0-9.336h-45.767v-4.782h45.767v4.782zm0-9.336h-45.767v-4.782h45.767v4.782zm0-9.336h-45.767v-4.782h45.767v4.782zm0-9.336h-45.767v-4.782h45.767v4.782zm0-9.336h-45.767v-4.782h45.767v4.782zm82.654 227.697h-4.782V416.835l4.782-5.237v235.21z" fill="#ddd6ff" opacity=".43"/><path d="M449.085 588.52V424.577H441.8v-16.622h-57.152v16.622h-7.286v206.066h-53.51v-93.356h-78.1v122.5h-37.798V440.516h-76.962V609.01h-9.108V508.825h-13.9l-38.708-20.493v20.493h-8.425v123.867h-18.9V464.88H22.837v-58.746h-2.505v58.746H1.206v211.758H497.13v-88.12h-48.044zM37.4 572.58H5.987v-3.643H37.4v3.643zm0-8.425H5.987v-3.643H37.4v3.643zm0-8.425H5.987v-3.643H37.4v3.643zm0-8.425H5.987v-3.643H37.4v3.643zm0-8.652H5.987V535H37.4v3.643zm0-8.425H5.987v-3.643H37.4v3.643zm0-8.425H5.987v-3.643H37.4v3.643zm0-8.425H5.987v-3.643H37.4v3.643zm0-8.425H5.987v-3.643H37.4v3.643zm0-8.425H5.987v-3.643H37.4v3.643zm0-8.425H5.987v-3.643H37.4v3.643zm0-8.425H5.987v-3.643H37.4v3.643zm0-8.425H5.987v-3.643H37.4v3.643zm110.205 50.32h-9.336v-9.336h9.336v9.336zm0-15.71h-9.336v-9.336h9.336v9.336zm0-15.483h-9.336v-9.336h9.336v9.336zm0-15.71h-9.336v-9.336h9.336v9.336zm0-15.483h-9.336v-9.336h9.336v9.336zm17.76 62.39h-9.336v-9.336h9.336v9.336zm0-15.71h-9.336v-9.336h9.336v9.336zm0-15.483h-9.336v-9.336h9.336v9.336zm0-15.71h-9.336v-9.336h9.336v9.336zm0-15.483h-9.336v-9.336h9.336v9.336zm17.76 62.39H173.8v-9.336h9.336v9.336zm0-15.71H173.8v-9.336h9.336v9.336zm0-15.483H173.8v-9.336h9.336v9.336zm0-15.71H173.8v-9.336h9.336v9.336zm0-15.483H173.8v-9.336h9.336v9.336zm17.76 62.39h-9.336v-9.336h9.336v9.336zm0-15.71h-9.336v-9.336h9.336v9.336zm0-15.483h-9.336v-9.336h9.336v9.336zm0-15.71h-9.336v-9.336h9.336v9.336zm255.476 190.8h-9.79v-9.79h9.79v9.79zm0-19.354h-9.79v-9.79h9.79v9.79zm0-19.582h-9.79v-9.79h9.79v9.79zm0-19.354h-9.79v-9.79h9.79v9.79zm17.988 58.3h-9.79v-9.79h9.79v9.79zm0-19.354h-9.79v-9.79h9.79v9.79zm0-19.582h-9.79v-9.79h9.79v9.79zm0-19.354h-9.79v-9.79h9.79v9.79zm17.988 58.3h-9.79v-9.79h9.79v9.79zm0-19.354h-9.79v-9.79h9.79v9.79zm0-19.582h-9.79v-9.79h9.79v9.79zm0-19.354h-9.79v-9.79h9.79v9.79z" fill="url(#A)"/><path d="M702.274 588.52V424.577h-7.286v-16.622h-57.152v16.622h-7.286v206.066h-53.51v-93.356h-78.1v122.5h-37.798V440.516H384.18V609.01h-9.108V508.825h-13.9l-38.708-20.493v20.493h-8.425v123.867h-18.9V464.88h-19.127v-58.746h-2.505v58.746h-19.127v211.758h495.924v-88.12h-48.044zm-411.676-15.94h-31.422v-3.643h31.422v3.643zm0-8.425h-31.422v-3.643h31.422v3.643zm0-8.425h-31.422v-3.643h31.422v3.643zm0-8.425h-31.422v-3.643h31.422v3.643zm0-8.652h-31.422V535h31.422v3.643zm0-8.425h-31.422v-3.643h31.422v3.643zm0-8.425h-31.422v-3.643h31.422v3.643zm0-8.425h-31.422v-3.643h31.422v3.643zm0-8.425h-31.422v-3.643h31.422v3.643zm0-8.425h-31.422v-3.643h31.422v3.643zm0-8.425h-31.422v-3.643h31.422v3.643zm0-8.425h-31.422v-3.643h31.422v3.643zm0-8.425h-31.422v-3.643h31.422v3.643zm110.205 50.32h-9.336v-9.336h9.336v9.336zm0-15.71h-9.336v-9.336h9.336v9.336zm0-15.483h-9.336v-9.336h9.336v9.336zm0-15.71h-9.336v-9.336h9.336v9.336zm0-15.483h-9.336v-9.336h9.336v9.336zm17.76 62.39h-9.336v-9.336h9.336v9.336zm0-15.71h-9.336v-9.336h9.336v9.336zm0-15.483h-9.336v-9.336h9.336v9.336zm0-15.71h-9.336v-9.336h9.336v9.336zm0-15.483h-9.336v-9.336h9.336v9.336zm17.76 62.39h-9.336v-9.336h9.336v9.336zm0-15.71h-9.336v-9.336h9.336v9.336zm0-15.483h-9.336v-9.336h9.336v9.336zm0-15.71h-9.336v-9.336h9.336v9.336zm0-15.483h-9.336v-9.336h9.336v9.336zm17.76 62.39h-9.336v-9.336h9.336v9.336zm0-15.71h-9.336v-9.336h9.336v9.336zm0-15.483h-9.336v-9.336h9.336v9.336zm0-15.71h-9.336v-9.336h9.336v9.336zm255.476 190.8h-9.79v-9.79h9.79v9.79zm0-19.354h-9.79v-9.79h9.79v9.79zm0-19.582h-9.79v-9.79h9.79v9.79zm0-19.354h-9.79v-9.79h9.79v9.79zm17.988 58.3h-9.79v-9.79h9.79v9.79zm0-19.354h-9.79v-9.79h9.79v9.79zm0-19.582h-9.79v-9.79h9.79v9.79zm0-19.354h-9.79v-9.79h9.79v9.79zm17.988 58.3h-9.79v-9.79h9.79v9.79zm0-19.354h-9.79v-9.79h9.79v9.79zm0-19.582h-9.79v-9.79h9.79v9.79zm0-19.354h-9.79v-9.79h9.79v9.79z" fill="#e3f0ff"/><path d="M841.667 570.986v-146.41h-7.286v-16.622H777.23v16.622h-7.286v206.066h-53.51v-93.356h-78.1v122.5h-37.798V440.516h-76.962V609.01h-9.108V508.825h-13.9l-38.708-20.493v20.493h-8.425v123.867h-18.9V464.88h-19.127v-58.746h-2.505v58.746h-19.127v211.758H889.71V571.214h-48.044v-.228zM429.99 572.58H398.57v-3.643h31.422v3.643zm0-8.425H398.57v-3.643h31.422v3.643zm0-8.425H398.57v-3.643h31.422v3.643zm0-8.425H398.57v-3.643h31.422v3.643zm0-8.652H398.57V535h31.422v3.643zm0-8.425H398.57v-3.643h31.422v3.643zm0-8.425H398.57v-3.643h31.422v3.643zm0-8.425H398.57v-3.643h31.422v3.643zm0-8.425H398.57v-3.643h31.422v3.643zm0-8.425H398.57v-3.643h31.422v3.643zm0-8.425H398.57v-3.643h31.422v3.643zm0-8.425H398.57v-3.643h31.422v3.643zm0-8.425H398.57v-3.643h31.422v3.643zm110.205 50.32h-9.336v-9.336h9.336v9.336zm0-15.71h-9.336v-9.336h9.336v9.336zm0-15.483h-9.336v-9.336h9.336v9.336zm0-15.71h-9.336v-9.336h9.336v9.336zm0-15.483h-9.336v-9.336h9.336v9.336zm17.76 62.39h-9.336v-9.336h9.336v9.336zm0-15.71h-9.336v-9.336h9.336v9.336zm0-15.483h-9.336v-9.336h9.336v9.336zm0-15.71h-9.336v-9.336h9.336v9.336zm0-15.483h-9.336v-9.336h9.336v9.336zm17.76 62.39h-9.336v-9.336h9.336v9.336zm0-15.71h-9.336v-9.336h9.336v9.336zm0-15.483h-9.336v-9.336h9.336v9.336zm0-15.71h-9.336v-9.336h9.336v9.336zm0-15.483h-9.336v-9.336h9.336v9.336zm17.76 62.39h-9.336v-9.336h9.336v9.336zm0-15.71h-9.336v-9.336h9.336v9.336zm0-15.483h-9.336v-9.336h9.336v9.336zm0-15.71h-9.336v-9.336h9.336v9.336zm260.485 165.08h-8.425v-8.425h8.425v8.425zm0-16.85h-8.425v-8.425h8.425v8.425zm0-16.85h-8.425v-8.425h8.425v8.425zm0-16.622h-8.425v-8.425h8.425v8.425zm15.71 50.32h-8.425v-8.425h8.425v8.425zm0-16.85h-8.425v-8.425h8.425v8.425zm0-16.85h-8.425v-8.425h8.425v8.425zm0-16.622h-8.425v-8.425h8.425v8.425zm15.483 50.32h-8.425v-8.425h8.425v8.425zm0-16.85h-8.425v-8.425h8.425v8.425zm0-16.85h-8.425v-8.425h8.425v8.425zm0-16.622h-8.425v-8.425h8.425v8.425z" fill="url(#B)"/></g><path d="M267.54 609.467c-4.1-6.603-8.197-13.434-8.88-20.948-.683-7.06-1.822-14.8-.683-21.86s.683-14.345-.91-21.176c-4.782-21.86-14.117-19.354-17.305-17.76s-4.782 5.237-5.01 10.93c-.228 4.554 3.188 26.185-3.87 22.997-8.197-3.643-7.97-26.185-9.336-33.7-2.05-11.157-6.603-23.225-15.256-30.967-4.326-3.87-10.474-6.603-15.71-4.1-3.188 1.594-5.01 4.782-6.148 7.97-3.188 9.79.228 20.037 4.1 29.145 1.594 3.87 14.8 21.404 4.1 19.582-2.505-.455-24.136-17.077-26.185.455-.683 6.148 6.148 12.523 17.305 20.265 6.83 4.782 32.105 17.533 30.967 24.364s-15.256-3.87-13.434 8.652c.91 7.06 10.246 12.068 16.622 14.8 2.96 1.366 6.376 1.822 9.108 3.415 3.415 1.822 7.742 5.92 5.237 10.02-1.138 1.822-3.415 2.732-4.554 4.554s-.683 4.326.455 6.148 2.96 3.188 4.782 4.326c11.84 7.286 26.64 8.197 40.302 5.465s26.185-9.108 38.253-16.166" fill="#cde4ff" class="B"/><g opacity=".25" stroke="#4a709c" class="E F L"><path d="M197.182 504.727s14.8 74 60.112 119.996"/><path d="M176.917 553.682s25.274 19.354 45.995 22.087m20.492-38.937c1.366 11.613 2.732 44.173-8.197 59.884"/></g><g class="B"><path d="M305.338 602.636c-1.594-8.88-17.76-64.438-46.45-49.638-17.077 8.88-13.9 40.985 12.523 65.577-5.237-5-11.157-10.702-18.216-12.068-3.87-.683-8.425.9-11.385 3.643-2.505 2.277-3.415 6.148-3.415 9.563-.455 12.75 6.148 25.274 16.85 32.333-5.92-3.188-10.93-7.286-17.533-7.97-2.277-.228-5.92 1.138-6.83 2.96-1.138 2.05-.9 10.02 11.84 15.94-52.598-10.02-55.786 12.523-36.887 12.523h155.3m224.052-72.863c1.594-8.88 17.76-64.438 46.45-49.638 17.077 8.88 13.9 40.985-12.523 65.577 5.237-5 11.157-10.702 18.216-12.068 3.87-.683 8.425.9 11.385 3.643 2.505 2.277 3.415 6.148 3.415 9.563.455 12.75-6.148 25.274-16.85 32.333 5.92-3.188 10.93-7.286 17.533-7.97 2.277-.228 5.92 1.138 6.83 2.96 1.138 2.05.9 10.02-11.84 15.94 52.598-10.02 55.786 12.523 36.887 12.523H559.675" fill="#5497e6"/><path d="M572.427 563.7c3.415-6.83 6.603-14.117 6.603-21.86-.228-7.06 0-15.028-1.822-21.86s-2.277-14.117-1.366-21.176c2.505-22.087 11.84-20.72 15.256-19.582 3.415 1.366 5.465 4.554 6.148 10.246.683 4.554-.228 26.413 6.376 22.542 7.742-4.554 5.01-27.096 5.465-34.6.683-11.385 4.1-23.908 11.84-32.56 3.87-4.326 9.79-7.742 15.028-5.692 3.188 1.138 5.465 4.1 7.06 7.286 4.326 9.336 2.05 19.8-.91 29.373-1.138 3.87-12.296 22.77-1.822 20.037 2.505-.683 22.087-19.8 26.185-2.505 1.366 6.148-4.782 12.98-14.8 22.087-6.376 5.692-30.056 20.948-28.007 27.78 2.05 6.603 14.8-5.692 14.345 7.06-.228 7.06-8.88 13.206-15.028 16.622-2.96 1.594-5.92 2.505-8.88 4.326-3.188 2.05-7.06 6.83-3.87 10.474 1.366 1.594 3.643 2.277 5.01 4.1s1.138 4.326.228 6.148c-.91 2.05-2.505 3.415-4.326 4.782-10.93 8.425-25.73 11.157-39.392 10.02-13.9-1.366-27.096-6.148-39.847-11.613" fill="#cde4ff"/></g><g opacity=".25" stroke="#4a709c" class="E F L"><path d="M630.49 451.674s-6.376 75.14-46.45 125.916"/><path d="M656 498.124s-22.997 22.087-43.262 27.096m-24.59-36.204c0 11.84 2.277 44.173 14.8 58.746m25.958 5.692s-8.88 9.563-38.936 16.166"/></g><g transform="translate(288.488 45.532)"><g class="B"><g fill="#1866ae"><path d="M319.46 45.015v539.642c0 24.82-20.037 44.856-44.856 44.856H53.28c-24.82 0-44.856-20.037-44.856-44.856V45.015C8.425 20.196 28.462.158 53.28.158h221.32c24.82.228 44.856 20.265 44.856 44.856z"/><path d="M319.46 45.015v7.514H8.425v-7.514C8.425 20.196 28.462.158 53.28.158H274.6c24.82.228 44.856 20.265 44.856 44.856zm2.73 201.967h-2.505V128.124h2.505c3.188 0 5.92 2.732 5.92 5.92v107.018c-.228 3.415-2.732 5.92-5.92 5.92zM8.425 184.137H5.92c-2.96 0-5.465-2.505-5.465-5.465v-46.906c0-2.96 2.505-5.465 5.465-5.465h2.505v57.835zm0 62.845h-2.05c-2.732 0-4.782-2.05-4.782-4.782v-25.957c0-2.732 2.05-4.782 4.782-4.782h2.05v35.52z"/></g><path d="M119.313 26.344c0 4.782-3.87 8.88-8.88 8.88-4.782 0-8.88-3.87-8.88-8.88 0-4.782 3.87-8.88 8.88-8.88s8.88 4.1 8.88 8.88zm19.354 0c0 2.277-1.822 4.326-4.326 4.326-2.277 0-4.326-1.822-4.326-4.326 0-2.277 1.822-4.326 4.326-4.326 2.277.228 4.326 2.05 4.326 4.326zm88.803 5.464h-74.457c-2.05 0-3.643-1.594-3.643-3.643v-3.188c0-2.05 1.594-3.643 3.643-3.643h74.457c2.05 0 3.643 1.594 3.643 3.643v3.188c0 1.822-1.822 3.643-3.643 3.643z" opacity=".22" fill="#0d3e6b"/><path fill="#f0f7ff" d="M15.256 52.53h294.867v524.614H15.256z"/></g><g stroke="#206CFD"><path d="M261.23 409.9h-29.756m-124.2-27.158h-41.4m195.355 0H125.388m135.842-25.875H65.876m69.862-25.875H65.876m195.354 0H153.85m59.5 78.908H65.876" stroke-width="9.175" class="E F"/><path d="M247.847 153.416H69.464V273.58c0 1.118.453 2.13 1.186 2.864s1.745 1.186 2.864 1.186h174.333c1.118 0 2.13-.453 2.864-1.186s1.186-1.745 1.186-2.864V157.466c0-1.118-.453-2.13-1.186-2.864s-1.745-1.186-2.864-1.186z" stroke-width="2.7"/></g><path d="M68.114 153.135h63v-26.1a3.6 3.6 0 0 0-3.6-3.6h-55.8a3.6 3.6 0 0 0-3.6 3.6v26.1z" class="I"/><path d="M87.268 144.3c2.678 0 4.69-1.315 5.762-3.8l-1.576-.648c-.822 1.972-2.166 2.813-4.186 2.813-3.268 0-4.64-2.378-4.64-5.453 0-3.113 1.508-5.308 4.67-5.308 2.05 0 3.5.822 4.12 2.784l1.595-.638c-1.034-2.475-2.997-3.77-5.694-3.77-4.273 0-6.38 3.045-6.38 7 0 3.945 2.117 7.01 6.333 7.01zm8.363-.164l1.16-3.2h5.752l1.14 3.2h1.847l-5.2-13.66h-1.354l-5.2 13.66h1.856zm6.38-4.65h-4.69l2.34-6.574 2.35 6.574zm7.725 4.65v-6.062h1.586l.87-.02 3.5 6.08h1.943l-3.8-6.246c1.692-.464 2.823-1.73 2.823-3.538 0-2.475-2-3.877-4.612-3.877h-4.022v13.66h1.702zm2.465-7.454h-2.446v-4.68h2.31c1.808 0 2.9.89 2.9 2.378 0 1.42-1.015 2.253-2.775 2.3z" class="B C"/><path d="M130.647 168.847a1.39 1.39 0 0 0-1.057 1.02l-7.952 29.335c-8.664 3.446-15.1 11.555-15.1 21.343v23.128c0 .712.645 1.36 1.353 1.36h6.767v12.244c0 2.04 1.4 3.76 3.34 4.932s4.554 1.87 7.486 1.87a11.57 11.57 0 0 0 6.344-1.913c1.754-1.175 3.13-2.85 3.13-4.9v-12.244h60.906v12.244c0 1.814.938 3.6 2.58 4.847s3.962 1.956 6.894 1.956a11.57 11.57 0 0 0 6.344-1.913c1.754-1.175 3.13-2.85 3.13-4.9v-12.244h6.767c.7 0 1.353-.648 1.353-1.36v-23.128c0-9.6-5.564-17.684-13.704-21.215l-7.994-29.463c-.15-.58-.716-1.02-1.3-1.02H130.9a2.69 2.69 0 0 0-.127 0c-.042.001-.085-.001-.127 0h0zm1.27 2.72h66.997l7.233 26.7c-1.977-.54-4.05-.85-6.218-.85h-47.372v-1.36c0-2.494-1.26-4.6-3.045-5.995s-4.098-2.168-6.43-2.168-4.643.772-6.43 2.168-3.045 3.5-3.045 5.995v1.36H130.9a24.79 24.79 0 0 0-6.218.808l7.233-26.657zm11.166 19.047c1.73 0 3.477.588 4.737 1.573s2.03 2.282 2.03 3.87v1.36h-13.535v-1.36c0-1.587.77-2.884 2.03-3.87s3.008-1.573 4.737-1.573zm-12.18 9.523h69.027c11.48 0 20.302 8.868 20.302 20.407v21.768c-37.723-.022-78.07 0-110.985 0v-21.768c0-11.438 10.176-20.407 21.656-20.407zm-13.535 44.896h14.888v12.244c0 .68-.654 1.77-1.946 2.636a9.02 9.02 0 0 1-4.822 1.446c-2.48 0-4.65-.62-6.1-1.488s-2.03-1.913-2.03-2.593v-12.244zm81.208 0h13.535v12.244c0 .68-.654 1.77-1.946 2.636a9.02 9.02 0 0 1-4.822 1.446c-2.48 0-4.222-.6-5.287-1.403s-1.48-1.772-1.48-2.678v-12.244zm-1.356-35.37c-5.532 0-9.422 4.17-9.474 9.523 0 5.802 4.544 9.45 9.474 9.523 5.6 0 9.388-4.708 9.474-9.523 0-5.6-4.268-9.457-9.474-9.523zm0 2.72c4.126.235 6.72 3.322 6.767 6.802 0 3.84-2.755 6.802-6.767 6.802-3.822 0-6.72-3.048-6.767-6.802 0-3.968 3.057-6.767 6.767-6.802zm-63.613-2.72c-5.53.17-9.4 4.568-9.474 9.523.095 5.27 4.683 9.437 9.474 9.523 5.48-.036 9.388-4.708 9.474-9.523-.012-5.35-4.268-9.457-9.474-9.523zm0 2.72c4.126.235 6.72 3.322 6.767 6.802 0 3.543-2.757 6.802-6.767 6.802-3.396 0-6.698-3.3-6.767-6.802.24-4.07 3.032-6.754 6.767-6.802zm14.763 4.082a1.35 1.35 0 0 0-1.145.734 1.37 1.37 0 0 0 .064 1.364c.263.4.724.648 1.2.623h32.483a1.35 1.35 0 0 0 1.189-.674 1.37 1.37 0 0 0 0-1.372 1.35 1.35 0 0 0-1.189-.674H148.5c-.042-.002-.085-.002-.127 0h0z" class="I"/><path d="M155.453 174.982c-.485.02-.922.3-1.145.734a1.37 1.37 0 0 0 .064 1.364c.263.4.724.648 1.21.623h32.483a1.35 1.35 0 0 0 1.189-.674c.246-.424.246-.948 0-1.372a1.35 1.35 0 0 0-1.189-.674H155.58c-.042-.002-.085-.002-.127 0h0z" fill="#cee2fa"/><path d="M148.37 224.627c-.485.02-.92.3-1.144.734a1.37 1.37 0 0 0 .064 1.363c.262.4.723.648 1.208.624h32.483a1.35 1.35 0 0 0 1.189-.674c.246-.424.246-.948 0-1.372a1.35 1.35 0 0 0-1.189-.674h-32.483c-.042-.002-.085-.002-.127 0h0z" class="I"/><g transform="translate(67.171 457.468)" class="B"><path d="M175.29 37.518H18.76C8.267 37.518 0 28.934 0 18.76 0 8.267 8.585 0 18.76 0h156.53c10.493 0 18.76 8.585 18.76 18.76.318 10.174-8.267 18.76-18.76 18.76z" fill="#206CFD"/><use fill="#000" xlink:href="#C"/><use xlink:href="#C" class="C"/></g></g><g class="B"><path d="M788.407 364.72s5.92-.91 6.83 2.277.455 27.324.228 30.056-5.465 6.603-12.296 8.425c1.138-15.71 5.237-40.758 5.237-40.758z" fill="#ffda91"/><path d="M777.478 343.545s9.108.455 11.385 5.465c2.05 5.01 1.822 48.044.228 52.826-1.594 4.554-9.79 4.554-25.502 8.88 9.108-15.256 10.02-21.86 10.02-24.364-.455-2.732 3.87-42.807 3.87-42.807z" fill="#eaa139"/><path d="M766.548 278.65s7.97 8.425 11.84 22.542 5.237 29.828 5.01 30.74-7.97 2.277-8.652 2.05c-.683 0-8.197-55.33-8.197-55.33z" fill="#ffe6b4"/><path d="M664.312 264.534c3.415-7.06 22.542-11.84 38.48-10.93 12.75.91 25.502 3.87 37.798 7.97 5.92 1.822 11.84 3.415 17.305 6.148 6.603 3.415 9.563 8.652 11.613 15.483 6.148 20.493 7.97 41.67 8.652 62.844.683 17.077 1.138 34.382-.228 51.46-.228 3.87-.228 15.71-4.782 17.533-9.108 3.87-24.136 5.465-30.967 4.782-3.87-.455-3.87-20.037-4.1-22.542-.91-14.8-1.138-29.828-1.138-44.856-.228-18.443.228-36.887-1.138-55.33-.455-7.514-5.237-6.148-11.157-6.83-4.782-.683-9.79-1.366-14.573-2.277-7.742-1.366-52.598-8.425-45.767-23.453z" class="J"/><path d="M744.917 350.83l1.366 57.607c0 4.326 3.415 7.514 7.06 7.286 4.326-.228 9.336-.91 13.9-2.05 2.96-.683 5.237-3.188 5.92-6.603 2.05-11.613 3.87-28.917 2.277-57.38-.228-3.87-3.643-6.148-6.83-4.326-10.93 5.92-23.68 5.465-23.68 5.465z" fill="#ffda91"/><path d="M726.018 261.346s.228 3.415-1.822 5.465c-1.138 1.138-3.415-.228-3.415-.228s-15.483-5.692-18.9-4.782c-2.277-1.366-2.96-5.465-2.277-6.603.91-1.366 16.394-3.415 26.413 6.148z" fill="#e0902f"/><g fill="#965c17"><path d="M721.236 256.564c12.75 7.06 29.145 12.523 33.7 27.78 3.415 11.84 1.366 24.364 3.643 36.43.228.683 1.138.455 1.138-.228.455-6.376-.455-13.434-.91-19.8-.455-7.06-.91-14.573-3.87-21.176-5.465-12.296-21.63-19.354-33.7-23.68 0 0-.228.455 0 .683h0z"/><path d="M758.58 318.27c-.228 1.138-.91 10.93 2.277 8.88 1.366-.91 1.138-3.188.91-4.554-.228-1.594-.91-4.1-2.277-4.782-.228-.228-.91 0-.91.455.455 1.138 1.366 1.822 1.594 2.96.228.91.683 2.505.228 3.643-.455 1.366-.683 0-.683-.683 0-.455 0-1.138-.228-1.594v-3.87c.228-.91-.683-1.138-.91-.455h0z"/></g><path d="M637.67 300.283c-4.1 1.366-7.514 4.782-9.336 8.652-.228.683-.455 1.138-.455 1.822s.228 1.138.455 1.822c.455 1.138.683 2.505 1.138 3.643.455 1.366.91 2.505 1.822 3.643s2.277 1.594 3.188.455c1.138-1.138 2.05-2.732 2.732-4.1 1.594-3.188 2.277-6.603 2.05-10.246 0-1.594-.455-2.96-.91-4.554" fill="#38326d"/><g class="D"><path d="M604.655 296.867c17.305-11.613 45.312-21.86 55.103-26.413l10.702 28.7c-16.166 7.514-53.28 22.997-67.854 22.997h0c12.068-3.188 2.05-25.274 2.05-25.274z"/><path d="M579.153 290.492c-10.246-24.364-17.305-52.143-17.305-52.143l6.376-4.1s18.216 25.73 31.878 51.915c0 0 15.483 24.6 7.514 34.155h0c-2.05 1.366-3.643 2.05-5 1.822-9.563-1.366-19.127-21.176-23.453-31.65zm106.562-45.767c.9 4.782 0 10.02-1.138 14.573-1.594 5.465-3.415 5-8.88 5.237-3.415.228-9.8 0-9.8 0l-2.732 6.148c-.228.455 0 .9 0 1.366.683 5.692 4.1 10.474 8.197 14.345 2.277 2.277 4.554 4.326 7.514 5.465 4.554 2.05 10.02 1.822 15.028 1.138 4.1-.683 8.197-1.822 12.068-3.415 1.822-.683 3.643-1.366 5-2.732 3.188-2.732 4.1-7.286 5-11.385.228-1.594.455-3.415-.228-4.782-.455-.9-2.277-1.594-3.188-1.822-3.188-1.366-5.92-1.366-9.108-2.732-9.336-3.87-8.197-14.573-5.465-22.542"/></g><path d="M674.558 264.534c-6.376-.228-12.296.91-17.305 3.188-14.8 6.603-28.917 15.94-28.917 15.94s8.652.228 8.197 30.056c0 2.505-.91 4.782-3.188 6.83 9.563-3.87 26.413-13.662 26.413-13.662" class="C"/><g class="D"><path d="M713.95 230.152l-15.483-30.284c-18.443-.91-29.828 22.997-34.382 31.65-1.594 3.188-3.188 7.286-1.366 10.474 1.366 2.732 4.326 3.87 7.06 5.01 7.97 3.188 38.936 10.702 44.173-16.85z"/><path d="M675.697 216.718c-3.415 2.05-11.613 4.326-12.296 6.148s6.376 4.554 10.02 6.148"/></g><path d="M713.95 242.903c7.06 9.336 21.86 13.662 30.967 10.246 4.554-1.822 4.1-7.286 2.96-9.336-4.554-8.425-10.246-13.434-17.988-19.8" fill="#c17f22"/><path d="M712.583 205.333l-16.394-14.117c-3.643-2.277-7.514-4.1-11.613-4.326s-8.652 1.366-10.93 5.01c-.91 1.594-1.366 3.415-.91 5.237.455 1.138 1.138 2.05 2.05 2.96-.683.455-1.366 1.138-2.05 1.822-.91 1.138-1.366 2.505-1.138 4.1.455 2.732 3.188 4.326 5.692 5.01 3.643 1.138 8.652 1.366 12.75 0-1.366 3.415-1.366 9.108 10.702 10.93-1.822.683-2.732 2.732-2.505 4.554s2.05 3.415 3.87 3.643l-2.732 9.563c-.455 1.594-.91 3.415-.455 5.01.683 2.277 2.732 3.643 5.01 4.326 3.415 1.138 11.84-3.643 13.206-9.336l-4.554-34.382z" fill="#452e17"/><path d="M690.04 185.523c8.425-2.277 31.878-7.514 40.758 19.354 3.188 9.563 3.188 27.096-11.157 34.382l-12.068-12.296-17.988-36.66" class="J"/><path d="M691.18 184.84l-6.148 1.366c6.603 20.493 14.8 42.352 29.828 57.835l6.376-3.87c-13.206-13.206-23.225-37.115-30.056-55.33z" fill="#c17f22"/><path d="M698.922 231.746c.91-.91 2.505-.91 3.643-.228s1.822 1.822 1.822 3.188-.228 2.505-.91 3.643c-1.366 2.05-3.643 3.643-6.148 3.415-2.505 0-5.01-1.822-5.692-4.1" class="D"/><g fill="#262376"><path d="M699.833 371.552c12.75 20.265-2.277 114.304-15.71 157.11 7.97 27.78-4.554 93.356-4.554 93.356s-6.83 1.822-15.028.455c-.455-1.822-13.434-94.266-12.068-112.027 1.822-22.997-12.75-97.454 5.92-121.135"/><path d="M730.344 374.057c14.8 18.9 14.117 74.457 1.138 158.022 10.93 26.868 4.554 87.208 4.554 87.208s-6.83 3.643-15.028 3.188c-.683-1.822-22.314-87.436-22.77-105.196-.683-22.997-23.225-95.405-7.06-120.907"/></g><path d="M652.016 413.22c3.188 3.188 6.376 6.376 10.246 8.652 5.01 2.96 10.702 4.1 16.394 4.554s11.385.455 17.077 1.366c4.326.683 8.652 1.594 12.98 1.822s8.425-.228 12.75-.455c3.643 0 7.514 0 10.93-1.594 1.138-.683 2.277-1.594 2.96-2.732 1.138-2.505 0-5.465-1.594-7.97-3.188-4.782-7.742-8.197-12.75-10.93-5.01-2.505-10.474-4.326-15.94-5.692" fill="#191960"/><path d="M708.03 267.494c.228 0-.91 2.732-1.138 2.96-.455.91-1.138 1.822-1.822 2.732-2.96 3.643-7.286 6.376-12.068 7.06-5.01.91-10.02-.455-13.9-3.415-1.822-1.366-3.415-3.188-4.1-5.465-.228-.683-1.594-6.83-.455-6.83h-8.652l-16.85 42.124c1.138 59.884 0 105.196 0 105.196 10.246 8.197 17.76 8.652 48.272 11.613 30.51 2.732 37.57 4.554 47.59-5.01-2.96-12.296 1.594-67.626-23.225-124.778-2.732-6.376 2.732-14.573-.91-21.176-1.366-2.277-7.514-3.643-12.75-5.01z" class="C"/><g fill="#8883e5"><path d="M741.73 354.247c-2.505-18.9-15.256-34.382-27.55-48.727 17.077 8.652 29.6 25.957 32.56 45.084"/><path d="M717.82 309.39c-.683-.455-.228-1.138-.683-2.05-1.822-4.554-4.326-10.02-2.505-14.573.683-1.594 1.594-2.96 2.732-4.326.91-1.138 1.822-2.05 3.188-2.96 2.505-1.366 5.692-1.138 8.425.228 2.732 1.138 4.782 3.188 6.83 5.237a36.94 36.94 0 0 0-14.117-.683c2.732.455 5.237 1.594 7.514 3.415-3.415.91-7.514-1.594-10.702.228 1.594.683 2.96 1.366 4.554 2.05-2.05 0-3.643 1.822-4.554 3.643-1.366 2.277 0 4.554-.683 7.286"/><path d="M716.454 307.34c1.366-5.237 6.603-9.108 12.068-9.563s10.93 2.05 14.573 6.148 5.92 9.336 6.603 14.8c-1.366-.455-2.277-1.594-2.96-2.732-3.87-5.01-8.88-9.336-15.028-10.474 1.594 2.732 2.505 5.692 3.188 8.652-2.05-3.415-4.782-6.148-7.97-8.425l3.188 6.603c-3.643-3.87-7.514-3.643-12.75-3.415"/></g><path d="M732.85 348.1c3.643 5.237 3.87 9.79 7.286 14.8-.91-5.237-.91-9.79-2.277-15.483 0 0-1.822-2.732-3.87-5.465-1.594.91-3.643.455-6.148.683-3.87-12.523-5.465-14.117-12.75-25.047-.683-.91-1.138-1.822-1.822-2.732 6.148 12.98 9.108 24.136 12.296 35.52 3.188-.91 4.326-.91 7.286-2.277z" opacity=".25" fill="#7d67ce"/><path d="M737.175 423.694l-11.385 10.93c-.228.228-.455.455-.455.683s.228.455.228.683c2.732 4.326 5.465 8.425 8.425 12.523.228.228.455.455.683.455s.683-.228.91-.455c2.277-2.732 4.1-5.92 5.92-9.108.455-.683.683-1.366 1.138-2.05.455-1.138.455-2.277.455-3.415 0-3.643 0-7.286-.455-10.93" class="D"/><path d="M720.78 428.476c4.1 8.88 9.563 17.988 15.256 25.957.455.683 1.822 0 1.366-.683-5.01-8.652-10.246-17.305-15.94-25.502-.455-.455-.91-.228-.683.228h0z" fill="#131354"/><path d="M693.912 489.5v-1.594c0-1.138-.228-2.277-.455-3.643l-5.92-33.7s-.228 30.056.91 39.392c.683 5.237.683 12.98.683 20.265 1.822-6.376 3.415-13.434 4.782-20.72z" fill="#191960"/><path d="M724.88 333.527c7.97 11.84 16.394 23.453 25.047 34.6.91 1.138 2.732 2.277 3.643 1.138.228-.455.228-.91.228-1.366-.228-3.188-1.138-6.376-2.277-9.336-5.237-14.345-11.385-28.462-18.443-42.124" fill="#664624"/><path d="M735.353 428.476C738.77 404.34 746.5 368.82 746.5 368.82s-14.573-33.016-24.136-46.222l20.265-25.502c10.474 17.988 28.917 61.25 28.917 68.537s-16.166 46.222-29.6 66.487" class="D"/><path d="M730.116 335.12l6.148 11.84c2.277-.683 4.1-2.05 6.148-3.643 3.415-2.505 6.603-5.237 9.108-8.652s4.1-7.742 3.188-11.84c-8.652 1.822-17.077 5.465-24.59 10.474v1.822z" fill="#e0856c"/><path d="M720.553 271.365s7.742 1.366 14.345 8.425c5.92 6.376 16.166 32.105 21.63 43.262-2.732 6.376-3.87 7.286-7.97 10.93-5.237 5.01-13.434 8.652-20.948 8.88-3.415-10.246-14.573-28.007-14.573-28.007" class="C"/><path d="M732.165 271.138c-1.366-1.366-3.87-3.87-6.148-3.643-2.505.455-5.237 1.822-7.286 3.188-9.108 6.83-10.702 19.354-9.563 30.056.683 5.465 2.05 10.93 4.1 15.94.9 2.05 1.822 4.326 2.96 6.148 1.594 2.505 5 5.465 6.148 8.197-4.554-12.068-5.237-33.927-.455-47.6 2.05-5.692 6.83-9.336 10.246-12.296zm-53.735-10.475c-3.87 3.415-8.425 6.376-11.613 10.474-3.415 4.1-6.148 8.88-8.652 13.662-4.554 9.563-7.286 20.037-8.652 30.74-1.138-11.613-2.277-23.453 1.138-34.6 1.822-5.692 5-10.93 9.336-15.028 3.188-2.96 11.157-8.652 15.94-6.376" class="J"/><path d="M684.35 214.213c1.822.9 3.188 2.277 4.1 4.1.9 1.594.683 3.188 1.594 4.782.228.228.455.228.683 0 .683-1.594-.455-4.1-1.366-5.465-1.138-1.822-2.732-3.188-4.554-3.87-.455-.455-.9.228-.455.455h0zm-3.2 6.83c-1.594 1.138-2.505 2.505-1.594 4.1.228.455 1.138.683 1.822.455 1.138-.455 1.138-1.138 1.822-1.822 1.822-1.138 0-4.1-2.05-2.732h0z" fill="#452e17"/><path d="M681.16 221.955c-.455.228-.683.683-.455 1.138 0 .228.228.228.455.228s.228-.228.455-.455c.455-.455 0-1.138-.455-.91h0z" class="C"/><path d="M701.882 234.478c0-1.594-1.594-1.594-2.732-1.138-.683.228-.9.455-1.138 1.138-.228.9.228 1.366-.455 2.277-.455.455-2.05 1.594-2.505.455-.228-.455-.683-.455-.9-.228-.9 1.822 1.594 2.277 2.732 1.594.9-.455 1.594-.9 2.05-1.822.228-.228.228-.683.228-1.138v-.9c.228-.455 1.822-.9 2.05 0 .228.228.9.228.683-.228h0zm-3.188 7.06c-1.822.228-5 .228-5.692-1.822 0 .455 0 1.594.683 2.505.228.455 1.138.9 1.594 1.138.9.455 2.277.683 3.188.228m-12.524 6.83c2.05 0 7.06-.683 7.286-.455-.455.9-1.594 1.366-2.505 1.822-1.366.683-3.415 1.138-4.782 1.594" fill="#cc856e"/><path d="M667.955 229.47c-1.822 2.05-2.505 5.92-1.822 7.97.683 1.822 2.96 3.188 5.465 3.188 2.96 0 5.92-1.366 8.652-2.732-4.554-2.505-8.652-5.237-12.296-8.425z" fill="#934747"/><path d="M551.602 214.44c-.683-1.594-2.05-2.96-3.87-5.237-1.594-2.277-1.138-3.643-.228-4.1s4.554 3.415 7.06 5.465c2.277 1.822 5.692 7.286 6.376 8.425 1.594-1.138 3.87-1.594 4.782-1.366 1.822.455 5.465 6.603 5.92 10.246.455 2.732-1.138 10.02-1.138 10.02l1.822 6.376s-5.92 9.108-7.742 2.96c-2.05-6.148-4.1-7.742-7.06-8.425-2.505-.455-9.563-6.603-10.02-10.02 0-1.138.91-2.277 1.366-2.732 0-2.277 2.05-2.732 2.732-2.96.228-2.277 2.505-2.505 2.732-2.505.228-1.138-2.05-4.782-2.732-6.148z" class="D"/><g fill="#d1816b"><path d="M561.165 218.995c-1.138.683-3.415 1.822-3.643 3.188-.228.91.455 1.822 1.366 1.822.91.228 3.87-.91 4.326-.455.228.228.228 1.366.228 1.594.228.91.683 1.594 1.366 2.277 0 0 .228 0 .228-.228-.91-1.138-1.594-2.277-1.366-3.87 0 0 0-.228-.228-.228-1.138-.228-2.732.455-3.643.455-.683 0-1.594.228-1.822-1.138 0-.683.228-.91.683-1.366.683-.683 1.594-1.366 2.505-2.05.228 0 0-.228 0 0h0z"/><path d="M551.83 223.776c.683 1.594 2.05 3.643 3.643 4.326s3.415.683 5.237.9c1.138 0 2.505 0 2.732-1.366.228-1.594-1.366-2.96-2.732-3.188-.228 0-.228.228 0 .228.9.228 2.505 1.138 2.505 2.277 0 .9-1.366 1.594-2.05 1.594-1.138.228-2.505-.228-3.415-.455-.683 0-1.366-.228-2.05-.455-1.594-.683-2.732-2.732-3.415-4.1-.228 0-.455.228-.455.228h0zm-2.733 2.734c.683 1.594 2.05 3.643 3.643 4.326s4.1.9 5.692.455v-.228c-1.594.228-3.415 0-5-.455-1.822-.455-3.415-2.505-4.1-4.326 0 0-.228 0-.228.228h0zm2.05 7.285c1.366.455 2.96.683 4.326.228v-.228c-1.366 0-2.732.228-4.1-.228-.455-.228-.455 0-.228.228h0z"/></g></g></g></svg>